<?xml version="1.0" encoding="UTF-8"?>
<svg width="66px" height="66px" viewBox="0 0 66 66" version="1.1" xmlns="http://www.w3.org/2000/svg" xmlns:xlink="http://www.w3.org/1999/xlink">
    <!-- Generator: Sketch 53.2 (72643) - https://sketchapp.com -->
    <title>oxygen-logo-icon</title>
    <desc>Created with Sketch.</desc>
    <g id="Page-1" stroke="none" stroke-width="2" fill="none" fill-rule="evenodd">
        <g id="oxygen-logo-icon" fill="#EEEEEE" fill-opacity="1" fill-rule="nonzero">
            <path d="M62.6261155,45.0784141 C64.1540212,47.0152028 65.0646647,49.4536994 65.0646647,52.1030534 C65.0646647,58.405845 59.9107854,63.5152672 53.5531532,63.5152672 C51.3701446,63.5152672 49.3290606,62.9128576 47.5898168,61.8665748 C43.1413135,64.1935975 38.0767229,65.5 32.6867572,65.5 C14.7396491,65.5 0.4,51.0158184 0.4,32.5976616 C0.4,14.5371389 14.7396491,0.5 32.6867572,0.5 C50.6338652,0.5 64.9735144,14.5371389 64.9735144,32.5976616 C64.9735144,37.0354995 64.1410051,41.2449447 62.6261155,45.0784141 Z M57.1840921,41.2701403 C58.0250318,38.5632113 58.4800883,35.6509257 58.4800883,32.5976616 C58.4800883,17.5770289 46.9362199,6.2221458 32.6867572,6.2221458 C18.347108,6.2221458 6.89342603,17.5770289 6.89342603,32.5976616 C6.89342603,47.9759285 18.347108,59.7778542 32.6867572,59.7778542 C36.4932028,59.7778542 40.1065827,58.9356932 43.3584238,57.4081653 C42.517511,55.8232278 42.0416416,54.0182339 42.0416416,52.1030534 C42.0416416,45.8002618 47.1955209,40.6908397 53.5531532,40.6908397 C54.8218675,40.6908397 56.0426444,40.8943136 57.1840921,41.2701403 Z M53.5531532,59.5458015 C57.6994351,59.5458015 61.0606607,56.2135697 61.0606607,52.1030534 C61.0606607,47.9925372 57.6994351,44.6603053 53.5531532,44.6603053 C49.4068712,44.6603053 46.0456456,47.9925372 46.0456456,52.1030534 C46.0456456,56.2135697 49.4068712,59.5458015 53.5531532,59.5458015 Z"></path>
        </g>
    </g>
</svg>